<svg width="222" height="147" viewBox="0 0 222 147" fill="none" xmlns="http://www.w3.org/2000/svg">
<path d="M221.343 139.591C223.196 142.763 220.909 146.749 217.235 146.749H175.899C174.21 146.749 172.648 145.854 171.794 144.396L91.5828 7.50295C89.7243 4.33117 92.0116 0.339844 95.6878 0.339844H137.255C138.946 0.339844 140.51 1.23742 141.363 2.69752L221.343 139.591Z" fill="black"/>
<path d="M110.03 102.38C110.982 103.983 110.91 105.994 109.847 107.525L86.8457 140.634C84.8633 143.487 80.5899 143.323 78.8333 140.325L1.008 7.50295C-0.850464 4.33117 1.43688 0.339844 5.11303 0.339844H46.703C48.3817 0.339844 49.9361 1.22444 50.7935 2.66764L110.03 102.38Z" fill="black"/>
<path d="M37.915 138.268C39.7964 141.44 37.5107 145.453 33.8231 145.453H5.30446C2.6768 145.453 0.546654 143.323 0.546654 140.696V92.6214C0.546654 87.7834 6.92808 86.0331 9.39644 90.194L37.915 138.268Z" fill="black"/>
</svg>
